<svg width="52" height="15" viewBox="0 0 52 15" fill="none" xmlns="http://www.w3.org/2000/svg">
  <path d="M1.05682 3.27273H2.31818L5.28409 10.517H5.38636L8.35227 3.27273H9.61364V12H8.625V5.36932H8.53977L5.8125 12H4.85795L2.13068 5.36932H2.04545V12H1.05682V3.27273ZM14.2553 12.1364C13.6644 12.1364 13.146 11.9957 12.6999 11.7145C12.2567 11.4332 11.9102 11.0398 11.6602 10.5341C11.413 10.0284 11.2894 9.4375 11.2894 8.76136C11.2894 8.07955 11.413 7.48437 11.6602 6.97585C11.9102 6.46733 12.2567 6.07244 12.6999 5.79119C13.146 5.50994 13.6644 5.36932 14.2553 5.36932C14.8462 5.36932 15.3633 5.50994 15.8065 5.79119C16.2525 6.07244 16.5991 6.46733 16.8462 6.97585C17.0962 7.48437 17.2212 8.07955 17.2212 8.76136C17.2212 9.4375 17.0962 10.0284 16.8462 10.5341C16.5991 11.0398 16.2525 11.4332 15.8065 11.7145C15.3633 11.9957 14.8462 12.1364 14.2553 12.1364ZM14.2553 11.233C14.7042 11.233 15.0735 11.1179 15.3633 10.8878C15.6531 10.6577 15.8675 10.3551 16.0067 9.98011C16.146 9.60511 16.2156 9.19886 16.2156 8.76136C16.2156 8.32386 16.146 7.91619 16.0067 7.53835C15.8675 7.16051 15.6531 6.85511 15.3633 6.62216C15.0735 6.3892 14.7042 6.27273 14.2553 6.27273C13.8065 6.27273 13.4371 6.3892 13.1474 6.62216C12.8576 6.85511 12.6431 7.16051 12.5039 7.53835C12.3647 7.91619 12.2951 8.32386 12.2951 8.76136C12.2951 9.19886 12.3647 9.60511 12.5039 9.98011C12.6431 10.3551 12.8576 10.6577 13.1474 10.8878C13.4371 11.1179 13.8065 11.233 14.2553 11.233ZM21.4155 12.1364C20.8018 12.1364 20.2734 11.9915 19.8303 11.7017C19.3871 11.4119 19.0462 11.0128 18.8075 10.5043C18.5689 9.99574 18.4496 9.41477 18.4496 8.76136C18.4496 8.09659 18.5717 7.50994 18.8161 7.00142C19.0632 6.49006 19.407 6.09091 19.8473 5.80398C20.2905 5.5142 20.8075 5.36932 21.3984 5.36932C21.8587 5.36932 22.2734 5.45455 22.6428 5.625C23.0121 5.79545 23.3146 6.03409 23.5504 6.34091C23.7862 6.64773 23.9325 7.00568 23.9893 7.41477H22.9837C22.907 7.11648 22.7365 6.85227 22.4723 6.62216C22.2109 6.3892 21.8587 6.27273 21.4155 6.27273C21.0234 6.27273 20.6797 6.375 20.3842 6.57955C20.0916 6.78125 19.8629 7.06676 19.6982 7.43608C19.5362 7.80256 19.4553 8.23295 19.4553 8.72727C19.4553 9.23295 19.5348 9.6733 19.6939 10.0483C19.8558 10.4233 20.0831 10.7145 20.3757 10.9219C20.6712 11.1293 21.0178 11.233 21.4155 11.233C21.6768 11.233 21.9141 11.1875 22.1271 11.0966C22.3402 11.0057 22.5206 10.875 22.6683 10.7045C22.8161 10.5341 22.9212 10.3295 22.9837 10.0909H23.9893C23.9325 10.4773 23.7919 10.8253 23.5675 11.1349C23.3459 11.4418 23.0518 11.6861 22.6854 11.8679C22.3217 12.0469 21.8984 12.1364 21.4155 12.1364ZM26.397 9.61364L26.38 8.36932H26.5845L29.4482 5.45455H30.6925L27.6413 8.53977H27.5561L26.397 9.61364ZM25.4595 12V3.27273H26.4652V12H25.4595ZM29.6186 12L27.0618 8.76136L27.7777 8.0625L30.897 12H29.6186Z" fill="#00FFFF"/>
  <path d="M32.5795 4.21023V3.27273H39.125V4.21023H36.3807V12H35.3239V4.21023H32.5795ZM41.6552 12.1534C41.2404 12.1534 40.864 12.0753 40.5259 11.919C40.1879 11.7599 39.9194 11.5312 39.7205 11.233C39.5217 10.9318 39.4222 10.5682 39.4222 10.142C39.4222 9.76705 39.4961 9.46307 39.6438 9.23011C39.7915 8.99432 39.989 8.80966 40.2362 8.67614C40.4833 8.54261 40.756 8.44318 41.0543 8.37784C41.3555 8.30966 41.658 8.25568 41.962 8.21591C42.3597 8.16477 42.6822 8.12642 42.9293 8.10085C43.1793 8.07244 43.3612 8.02557 43.4748 7.96023C43.5913 7.89489 43.6495 7.78125 43.6495 7.61932V7.58523C43.6495 7.16477 43.5344 6.83807 43.3043 6.60511C43.0771 6.37216 42.7319 6.25568 42.2688 6.25568C41.7887 6.25568 41.4123 6.3608 41.1396 6.57102C40.8668 6.78125 40.6751 7.00568 40.5643 7.24432L39.6097 6.90341C39.7802 6.50568 40.0075 6.19602 40.2915 5.97443C40.5785 5.75 40.891 5.59375 41.229 5.50568C41.57 5.41477 41.9052 5.36932 42.2347 5.36932C42.445 5.36932 42.6864 5.39489 42.9592 5.44602C43.2347 5.49432 43.5004 5.59517 43.756 5.74858C44.0146 5.90199 44.229 6.13352 44.3995 6.44318C44.57 6.75284 44.6552 7.16761 44.6552 7.6875V12H43.6495V11.1136H43.5984C43.5302 11.2557 43.4165 11.4077 43.2575 11.5696C43.0984 11.7315 42.8867 11.8693 42.6225 11.983C42.3583 12.0966 42.0359 12.1534 41.6552 12.1534ZM41.8086 11.25C42.2063 11.25 42.5415 11.1719 42.8143 11.0156C43.0898 10.8594 43.2972 10.6577 43.4364 10.4105C43.5785 10.1634 43.6495 9.90341 43.6495 9.63068V8.71023C43.6069 8.76136 43.5131 8.80824 43.3683 8.85085C43.2262 8.89062 43.0614 8.92614 42.8739 8.95739C42.6893 8.9858 42.5089 9.01136 42.3327 9.03409C42.1594 9.05398 42.0188 9.07102 41.9109 9.08523C41.6495 9.11932 41.4052 9.17472 41.1779 9.25142C40.9535 9.32528 40.7717 9.4375 40.6325 9.58807C40.4961 9.7358 40.4279 9.9375 40.4279 10.1932C40.4279 10.5426 40.5572 10.8068 40.8157 10.9858C41.0771 11.1619 41.408 11.25 41.8086 11.25ZM46.4908 12V5.45455H47.4964V12H46.4908ZM47.0021 4.36364C46.8061 4.36364 46.6371 4.29688 46.495 4.16335C46.3558 4.02983 46.2862 3.86932 46.2862 3.68182C46.2862 3.49432 46.3558 3.33381 46.495 3.20028C46.6371 3.06676 46.8061 3 47.0021 3C47.1982 3 47.3658 3.06676 47.505 3.20028C47.647 3.33381 47.718 3.49432 47.718 3.68182C47.718 3.86932 47.647 4.02983 47.505 4.16335C47.3658 4.29688 47.1982 4.36364 47.0021 4.36364ZM50.3441 3.27273V12H49.3384V3.27273H50.3441Z" fill="#FF5900"/>
</svg>