<svg viewBox="0 0 100 100" fill="none" xmlns="http://www.w3.org/2000/svg">
  <g transform="translate(11, 10) scale(7.1)">
    <path 
      d="M4.298 9.996L1.554 1.806H1.498C1.50733 1.99267 1.52133 2.25867 1.54 2.604C1.55866 2.94 1.57266 3.30867 1.582 3.71C1.60066 4.102 1.61 4.47067 1.61 4.816V9.996H-1.92225e-06V1.54972e-06H2.492L5.124 7.854H5.18L7.924 1.54972e-06H10.416V9.996H8.708V4.732C8.708 4.41467 8.71267 4.06934 8.722 3.696C8.74067 3.31334 8.75467 2.954 8.764 2.618C8.78267 2.27267 8.79667 2.00667 8.806 1.82H8.75L5.894 9.996H4.298Z" 
      fill="#3399CC"
    />
  </g>
</svg>
